<svg width="125" height="23" viewBox="0 0 125 23" fill="none" xmlns="http://www.w3.org/2000/svg">
<path d="M0.0332031 3.25406H8.01196V22.4611H11.2459V3.25406H19.1961V0.00268555H0.0332031V3.25406Z" fill="#333333"/>
<path d="M34.3106 13.0734V12.8379C38.1183 12.6025 40.3253 10.3247 40.3253 6.60237C40.3253 2.41362 37.4834 0 32.8897 0H22.3711V22.4585H25.6357V13.7436H29.3535C31.8933 13.7436 32.8284 14.4817 33.7369 16.2569L36.9709 22.4585H40.7194L37.3343 15.9557C36.6095 14.5474 35.8827 13.5421 34.3106 13.0734ZM32.859 10.9632H25.6357V3.25364H32.859C35.5785 3.25364 36.9403 4.36082 36.9403 7.10728C36.9403 9.85374 35.5805 10.9632 32.859 10.9632Z" fill="#333333"/>
<path d="M58.8205 12.906C58.8205 17.4321 57.0076 19.3092 52.5629 19.3092C48.1182 19.3092 46.3053 17.4321 46.3053 12.906V0.00244141H43.0713V13.1415C43.0713 19.2412 46.5176 22.796 52.5629 22.796C58.6082 22.796 62.0831 19.2435 62.0831 13.1415V0.00244141H58.8185V12.9083L58.8205 12.906Z" fill="#333333"/>
<path d="M82.3501 0.00268555L75.3983 18.8067H75.1574L68.1443 0.00268555H64.2754L72.9197 22.4611H77.5461L86.1904 0.00268555H82.3501Z" fill="#333333"/>
<path d="M110.401 0.00268555H91.3242L82.3838 22.4611H101.365H103.862H104.991L107.318 16.6286H107.325L108.625 13.3772H108.619L109.971 10.0172V10.0149L111.369 6.53713L112.549 3.35368H112.79L113.968 6.53713L115.924 11.3983V11.4006L116.72 13.3772H116.716L118.017 16.6286H118.019L120.346 22.4611H124.033L114.997 0.00268555H110.401Z" fill="#333333"/>
</svg>
