<svg width="36" height="36" viewBox="0 0 36 36" fill="none" xmlns="http://www.w3.org/2000/svg">
<path d="M18 23.625C21.1066 23.625 23.625 21.1066 23.625 18C23.625 14.8934 21.1066 12.375 18 12.375C14.8934 12.375 12.375 14.8934 12.375 18C12.375 21.1066 14.8934 23.625 18 23.625Z" stroke="#343330" stroke-width="1.5" stroke-linecap="round" stroke-linejoin="round"/>
<path d="M24.75 4.5H11.25C7.52208 4.5 4.5 7.52208 4.5 11.25V24.75C4.5 28.4779 7.52208 31.5 11.25 31.5H24.75C28.4779 31.5 31.5 28.4779 31.5 24.75V11.25C31.5 7.52208 28.4779 4.5 24.75 4.5Z" stroke="#343330" stroke-width="1.5" stroke-linecap="round" stroke-linejoin="round"/>
<path d="M25.3125 12.0938C26.0892 12.0938 26.7188 11.4642 26.7188 10.6875C26.7188 9.91085 26.0892 9.28125 25.3125 9.28125C24.5358 9.28125 23.9062 9.91085 23.9062 10.6875C23.9062 11.4642 24.5358 12.0938 25.3125 12.0938Z" fill="#343330"/>
</svg>
