<svg width="36" height="36" viewBox="0 0 36 36" fill="none" xmlns="http://www.w3.org/2000/svg">
<path d="M30.375 4.5H5.625C5.00368 4.5 4.5 5.00368 4.5 5.625V30.375C4.5 30.9963 5.00368 31.5 5.625 31.5H30.375C30.9963 31.5 31.5 30.9963 31.5 30.375V5.625C31.5 5.00368 30.9963 4.5 30.375 4.5Z" stroke="#343330" stroke-width="1.5" stroke-linecap="round" stroke-linejoin="round"/>
<path d="M16.875 15.75V24.75" stroke="#343330" stroke-width="1.5" stroke-linecap="round" stroke-linejoin="round"/>
<path d="M12.375 15.75V24.75" stroke="#343330" stroke-width="1.5" stroke-linecap="round" stroke-linejoin="round"/>
<path d="M16.875 19.6875C16.875 18.6432 17.2898 17.6417 18.0283 16.9033C18.7667 16.1648 19.7682 15.75 20.8125 15.75C21.8568 15.75 22.8583 16.1648 23.5967 16.9033C24.3352 17.6417 24.75 18.6432 24.75 19.6875V24.75" stroke="#343330" stroke-width="1.5" stroke-linecap="round" stroke-linejoin="round"/>
<path d="M12.375 13.2188C13.1517 13.2188 13.7812 12.5892 13.7812 11.8125C13.7812 11.0358 13.1517 10.4062 12.375 10.4062C11.5983 10.4062 10.9688 11.0358 10.9688 11.8125C10.9688 12.5892 11.5983 13.2188 12.375 13.2188Z" fill="#343330"/>
</svg>
