<svg width="1483" height="269" viewBox="0 0 1483 269" fill="none" xmlns="http://www.w3.org/2000/svg">
<path d="M0 38.943H95.4193V268.804H134.095V38.943H229.172V0.0322266H0V38.943Z" fill="#FF6F38"/>
<path d="M409.93 156.456V153.638C455.466 150.82 481.861 123.561 481.861 79.0138C481.861 28.885 447.873 0 392.936 0H267.143V268.771H306.184V164.477H350.647C381.021 164.477 392.203 173.31 403.069 194.554L441.744 268.771H486.573L446.091 190.95C437.423 174.096 428.73 162.065 409.93 156.456ZM392.57 131.202H306.184V38.9379H392.57C425.092 38.9379 441.378 52.1881 441.378 85.0563C441.378 117.925 425.117 131.202 392.57 131.202Z" fill="#FF6F38"/>
<path d="M703.045 152.283C703.045 205.698 681.398 227.85 628.329 227.85C575.26 227.85 553.613 205.698 553.613 152.283V0H515V155.062C515 227.048 556.149 269 628.329 269C700.51 269 742 227.075 742 155.062V0H703.021V152.31L703.045 152.283Z" fill="#FF6F38"/>
<path d="M984.432 0.0322266L901.294 225.07H898.413L814.543 0.0322266H768.274L871.653 268.804H926.981L1030.36 0.0322266H984.432Z" fill="#FF6F38"/>
<path d="M1319.9 0.0322266H1091.75L984.834 268.804H1211.83H1241.69H1255.2L1283.03 199.003H1283.11L1298.66 160.092H1298.58L1314.75 119.881V119.854L1331.47 78.2331L1345.59 40.1352H1348.47L1362.56 78.2331L1385.95 136.41V136.437L1395.47 160.092H1395.42L1410.97 199.003H1411L1438.83 268.804H1482.93L1374.86 0.0322266H1319.9Z" fill="#FF6F38"/>
</svg>
