<svg width="125" height="23" viewBox="0 0 125 23" fill="none" xmlns="http://www.w3.org/2000/svg">
<path d="M0 3.25625H7.98435V22.4768H11.2206V3.25625H19.1763V0.00259399H0V3.25625Z" fill="white"/>
<path d="M34.3014 13.0826V12.8469C38.1118 12.6113 40.3203 10.3319 40.3203 6.607C40.3203 2.41532 37.4764 0 32.8795 0H22.3535V22.4742H25.6204V13.7533H29.3408C31.8824 13.7533 32.8182 14.4919 33.7273 16.2683L36.9636 22.4742H40.7147L37.3272 15.9669C36.6019 14.5576 35.8746 13.5516 34.3014 13.0826ZM32.8488 10.9709H25.6204V3.25592H32.8488C35.5702 3.25592 36.9329 4.36388 36.9329 7.11227C36.9329 9.86065 35.5722 10.9709 32.8488 10.9709Z" fill="white"/>
<path d="M58.8277 12.9152C58.8277 17.4445 57.0134 19.3228 52.5657 19.3228C48.1179 19.3228 46.3036 17.4445 46.3036 12.9152V0.00253296H43.0674V13.1508C43.0674 19.2548 46.5161 22.8121 52.5657 22.8121C58.6152 22.8121 62.0925 19.2571 62.0925 13.1508V0.00253296H58.8256V12.9174L58.8277 12.9152Z" fill="white"/>
<path d="M82.3737 0.00268555L75.4171 18.8199H75.176L68.158 0.00268555H64.2864L72.9368 22.4769H77.5664L86.2168 0.00268555H82.3737Z" fill="white"/>
<path d="M110.445 0.00268555H91.3541L82.4075 22.4769H101.402H103.901H105.03L107.36 16.6403H107.366L108.667 13.3866H108.661L110.014 10.0242V10.0219L111.413 6.54171L112.594 3.35603H112.835L114.014 6.54171L115.971 11.4063V11.4086L116.768 13.3866H116.764L118.065 16.6403H118.067L120.396 22.4769H124.086L115.044 0.00268555H110.445Z" fill="white"/>
</svg>
