<svg width="36" height="36" viewBox="0 0 36 36" fill="none" xmlns="http://www.w3.org/2000/svg">
<path d="M22.5 18L15.75 13.5V22.5L22.5 18Z" stroke="#343330" stroke-width="1.5" stroke-linecap="round" stroke-linejoin="round"/>
<path d="M3.375 18.0001C3.375 22.2062 3.80672 24.6728 4.13578 25.9412C4.2228 26.2862 4.3904 26.6057 4.62484 26.8734C4.85927 27.1411 5.15384 27.3493 5.48438 27.4811C10.1981 29.2993 18 29.2501 18 29.2501C18 29.2501 25.8019 29.2993 30.5156 27.4811C30.8472 27.3501 31.1429 27.1421 31.3784 26.8744C31.6138 26.6067 31.7823 26.2868 31.8698 25.9412C32.1989 24.6756 32.6306 22.2062 32.6306 18.0001C32.6306 13.794 32.1989 11.3275 31.8698 10.059C31.7833 9.71215 31.6152 9.39089 31.3797 9.12188C31.1442 8.85287 30.848 8.64386 30.5156 8.51216C25.8019 6.70091 18 6.75013 18 6.75013C18 6.75013 10.1981 6.70091 5.48438 8.51919C5.15198 8.65089 4.85576 8.8599 4.62026 9.12891C4.38475 9.39792 4.21675 9.71918 4.13016 10.0661C3.80672 11.3261 3.375 13.794 3.375 18.0001Z" stroke="#343330" stroke-width="1.5" stroke-linecap="round" stroke-linejoin="round"/>
</svg>
